<svg width="256" height="256" viewBox="0 0 256 256" fill="none" xmlns="http://www.w3.org/2000/svg">
<path d="M46.1436 88.072C51.6826 88.072 54.8363 92.4506 55.3496 96.2605L55.3916 96.6277L55.4131 96.9382L56.0752 109.746C56.7505 109.337 57.4187 108.95 58.0645 108.598C58.9498 108.116 59.9351 107.623 60.9268 107.23C61.7073 106.921 63.3532 106.312 65.2803 106.312L65.6338 106.318C69.0809 106.441 71.7806 108.358 73.4355 110.81L73.0107 102.531C73.0037 102.394 73 102.257 73 102.12V101.992C73 96.7858 77.1608 93.1776 81.4199 92.7517C81.5518 92.7385 81.684 92.729 81.8164 92.7224L94.6162 92.0818C94.7491 92.0751 94.8825 92.072 95.0156 92.072H95.1436C100.683 92.072 103.836 96.4506 104.35 100.26L104.392 100.628L104.413 100.938L105.075 113.746C105.75 113.337 106.419 112.95 107.064 112.598C107.95 112.116 108.935 111.623 109.927 111.23C110.707 110.921 112.353 110.312 114.28 110.312L114.634 110.318C118.148 110.444 120.887 112.433 122.532 114.954L122.693 115.207L122.695 115.21L124.301 117.822L124.442 115.113C124.448 115.01 124.455 114.906 124.465 114.803C124.843 110.647 128.296 106.248 133.712 106.248H133.84C133.982 106.248 134.125 106.252 134.268 106.259L140.456 106.591C143.055 106.115 145.617 105.864 148.176 105.864C156.263 105.864 163.92 108.339 169.686 113.292C172.611 115.805 174.939 118.87 176.54 122.355C180.897 116.889 187.659 112.928 196.576 112.928C196.717 112.928 196.857 112.931 196.997 112.933L197.554 104.648C197.763 101.452 199.473 98.8962 201.685 97.3523C203.743 95.9152 206.022 95.4558 207.904 95.4558L208.043 95.4568L219.114 95.6491L219.113 95.6501C221.1 95.6708 223.863 96.1491 226.182 98.2566C228.683 100.53 229.28 103.419 229.28 105.376V105.568C229.28 105.975 229.248 106.382 229.187 106.785C229.215 106.603 229.094 107.934 228.861 110.911C228.653 113.583 228.386 117.119 228.123 120.767C227.582 128.277 227.105 135.664 227.104 137.504C227.104 138.633 227.146 139.582 227.225 140.364C227.263 140.746 227.308 141.061 227.354 141.316C227.62 141.475 227.898 141.654 228.169 141.85C229.266 142.648 231.904 144.958 231.904 149.024C231.905 149.059 232.013 150.891 231.049 152.938L227.692 160.704C227.218 161.832 226.371 163.491 224.807 164.91C223.015 166.535 220.707 167.456 218.208 167.456C217.93 167.456 217.652 167.442 217.375 167.413L218.208 159.456C217.402 167.154 217.374 167.404 217.371 167.412C217.37 167.412 217.368 167.412 217.366 167.412C217.363 167.412 217.36 167.411 217.356 167.411C217.35 167.41 217.342 167.409 217.335 167.408C217.32 167.406 217.304 167.405 217.286 167.403C217.251 167.399 217.209 167.394 217.163 167.388C217.07 167.377 216.956 167.362 216.821 167.342C216.552 167.304 216.2 167.246 215.781 167.166C214.951 167.006 213.822 166.746 212.538 166.329C211.3 165.927 209.778 165.335 208.186 164.461C204.911 165.617 201.574 166.176 198.304 166.176C189.966 166.175 181.993 162.469 176.733 156.394C176.622 156.475 176.512 156.557 176.401 156.637C175.596 157.223 174.794 157.803 174.194 158.235C173.895 158.451 173.644 158.63 173.469 158.757C173.381 158.82 173.312 158.87 173.265 158.904C173.258 158.909 173.25 158.913 173.244 158.918C171.309 160.374 169.031 161.16 166.672 161.16C165.291 161.16 164.055 160.802 163.591 160.666C162.843 160.445 162.023 160.146 161.172 159.769C159.475 159.019 157.416 157.861 155.397 156.165C154.602 155.497 153.817 154.745 153.065 153.909C151.516 156.84 148.433 158.856 144.912 158.856H144.784C144.651 158.856 144.518 158.853 144.385 158.846L131.585 158.206C131.497 158.201 131.408 158.196 131.319 158.188C130.035 158.081 128.847 157.731 127.788 157.19L126.178 159.526C126.14 159.581 126.101 159.635 126.062 159.689C125.019 161.123 122.425 164.072 117.928 164.072C115.638 164.072 113.753 163.231 112.459 162.381C110.906 161.364 108.46 159.827 105.932 158.249C104.532 160.787 101.957 162.863 98.2236 162.978L85.5352 163.676C85.3889 163.684 85.2422 163.688 85.0957 163.688C81.1459 163.688 77.2385 161.107 76.0479 156.909C74.6755 158.358 72.3548 160.072 68.9277 160.072C66.6384 160.072 64.7528 159.231 63.459 158.381C61.9062 157.364 59.4601 155.827 56.9316 154.249C55.5324 156.787 52.9573 158.863 49.2236 158.978L36.5352 159.676C36.3889 159.684 36.2422 159.688 36.0957 159.688C31.5983 159.688 27.155 156.342 26.7158 151.072C26.7088 150.988 26.7026 150.903 26.6982 150.819L24.0107 98.531C24.0037 98.3942 24 98.2568 24 98.1198V97.9919C24 92.7858 28.1608 89.1776 32.4199 88.7517L32.8164 88.7224L45.6162 88.0818L46.0156 88.072H46.1436Z" fill="#FFE2E2"/>
<path d="M75.712 143.56L70.592 150.984C70.08 151.688 69.568 152.072 68.928 152.072C68.608 152.072 68.224 151.944 67.84 151.688C64.32 149.384 56.32 144.456 53.056 142.408C52.672 142.152 52.288 141.64 52.288 141.064C52.288 140.744 52.416 140.424 52.736 140.04L57.472 134.344C54.208 136.2 51.264 137.8 49.984 138.44L49.6 138.632L50.176 149.576C50.176 150.344 49.664 150.984 48.896 150.984L36.096 151.688C35.392 151.688 34.752 151.176 34.688 150.408L32 98.12V97.992C32 97.352 32.576 96.776 33.216 96.712L46.016 96.072H46.144C46.848 96.072 47.36 96.648 47.424 97.352L48.832 124.552C51.456 122.504 62.464 114.312 65.28 114.312C65.792 114.312 66.368 114.568 66.88 115.4L72.192 124.04C72.448 124.424 72.576 124.808 72.576 125.192C72.576 125.832 72.192 126.408 71.424 126.792C69.824 127.56 66.176 129.544 62.336 131.656C66.816 133.064 76.16 139.912 76.16 142.28C76.16 142.664 76.032 143.048 75.712 143.56Z" fill="#FFA2A2"/>
<path d="M124.712 147.56L119.592 154.984C119.08 155.688 118.568 156.072 117.928 156.072C117.608 156.072 117.224 155.944 116.84 155.688C113.32 153.384 105.32 148.456 102.056 146.408C101.672 146.152 101.288 145.64 101.288 145.064C101.288 144.744 101.416 144.424 101.736 144.04L106.472 138.344C103.208 140.2 100.264 141.8 98.984 142.44L98.6 142.632L99.176 153.576C99.176 154.344 98.664 154.984 97.896 154.984L85.096 155.688C84.392 155.688 83.752 155.176 83.688 154.408L81 102.12V101.992C81 101.352 81.576 100.776 82.216 100.712L95.016 100.072H95.144C95.848 100.072 96.36 100.648 96.424 101.352L97.832 128.552C100.456 126.504 111.464 118.312 114.28 118.312C114.792 118.312 115.368 118.568 115.88 119.4L121.192 128.04C121.448 128.424 121.576 128.808 121.576 129.192C121.576 129.832 121.192 130.408 120.424 130.792C118.824 131.56 115.176 133.544 111.336 135.656C115.816 137.064 125.16 143.912 125.16 146.28C125.16 146.664 125.032 147.048 124.712 147.56Z" fill="#FFA2A2"/>
<path d="M171.024 134.024V136.136C171.024 139.72 171.856 142.6 174.48 145.032C174.864 145.352 175.504 145.992 175.504 146.696C175.504 147.08 175.312 147.464 174.864 147.784C174.864 147.912 168.528 152.456 168.528 152.456C167.888 152.968 167.248 153.16 166.672 153.16C165.52 153.16 155.28 149.768 155.28 138.376V136.2C155.28 129.48 152.016 126.664 147.344 126.408L146.128 149.64C146.128 150.28 145.552 150.856 144.912 150.856H144.784L131.984 150.216C131.216 150.152 130.704 149.576 130.704 148.808L132.432 115.528C132.496 114.824 133.072 114.248 133.712 114.248H133.84L141.008 114.632C143.504 114.12 145.872 113.864 148.176 113.864C161.168 113.864 171.024 121.8 171.024 134.024Z" fill="#FFA2A2"/>
<path d="M223.776 149.6L220.32 157.6C219.808 158.816 219.168 159.456 218.208 159.456C218.208 159.456 212.704 158.88 209.12 155.296C205.536 157.28 201.824 158.176 198.304 158.176C187.616 158.176 178.464 149.984 178.464 139.68C178.464 131.872 183.904 120.928 196.576 120.928C199.328 120.928 202.08 121.504 204.384 122.336L205.536 105.184C205.6 104.096 206.624 103.456 207.904 103.456L218.976 103.648C220.768 103.648 221.28 104.48 221.28 105.376V105.568C221.152 106.4 219.104 133.088 219.104 137.504C219.104 142.752 219.872 146.656 222.496 147.808C223.2 148.128 223.904 148.448 223.904 149.024C223.904 149.216 223.904 149.408 223.776 149.6ZM204.576 145.312C204.128 142.432 203.872 139.04 203.872 134.944C203.168 133.664 201.376 132.768 199.456 132.768C195.616 132.768 193.184 136.288 193.184 139.872C193.184 143.456 195.68 146.528 199.776 146.528C201.184 146.528 202.784 146.144 204.576 145.312Z" fill="#FFA2A2"/>
<mask id="mask0_445_7" style="mask-type:alpha" maskUnits="userSpaceOnUse" x="32" y="96" width="192" height="64">
<path d="M75.712 143.56L70.592 150.984C70.08 151.688 69.568 152.072 68.928 152.072C68.608 152.072 68.224 151.944 67.84 151.688C64.32 149.384 56.32 144.456 53.056 142.408C52.672 142.152 52.288 141.64 52.288 141.064C52.288 140.744 52.416 140.424 52.736 140.04L57.472 134.344C54.208 136.2 51.264 137.8 49.984 138.44L49.6 138.632L50.176 149.576C50.176 150.344 49.664 150.984 48.896 150.984L36.096 151.688C35.392 151.688 34.752 151.176 34.688 150.408L32 98.12V97.992C32 97.352 32.576 96.776 33.216 96.712L46.016 96.072H46.144C46.848 96.072 47.36 96.648 47.424 97.352L48.832 124.552C51.456 122.504 62.464 114.312 65.28 114.312C65.792 114.312 66.368 114.568 66.88 115.4L72.192 124.04C72.448 124.424 72.576 124.808 72.576 125.192C72.576 125.832 72.192 126.408 71.424 126.792C69.824 127.56 66.176 129.544 62.336 131.656C66.816 133.064 76.16 139.912 76.16 142.28C76.16 142.664 76.032 143.048 75.712 143.56Z" fill="white"/>
<path d="M124.712 147.56L119.592 154.984C119.08 155.688 118.568 156.072 117.928 156.072C117.608 156.072 117.224 155.944 116.84 155.688C113.32 153.384 105.32 148.456 102.056 146.408C101.672 146.152 101.288 145.64 101.288 145.064C101.288 144.744 101.416 144.424 101.736 144.04L106.472 138.344C103.208 140.2 100.264 141.8 98.984 142.44L98.6 142.632L99.176 153.576C99.176 154.344 98.664 154.984 97.896 154.984L85.096 155.688C84.392 155.688 83.752 155.176 83.688 154.408L81 102.12V101.992C81 101.352 81.576 100.776 82.216 100.712L95.016 100.072H95.144C95.848 100.072 96.36 100.648 96.424 101.352L97.832 128.552C100.456 126.504 111.464 118.312 114.28 118.312C114.792 118.312 115.368 118.568 115.88 119.4L121.192 128.04C121.448 128.424 121.576 128.808 121.576 129.192C121.576 129.832 121.192 130.408 120.424 130.792C118.824 131.56 115.176 133.544 111.336 135.656C115.816 137.064 125.16 143.912 125.16 146.28C125.16 146.664 125.032 147.048 124.712 147.56Z" fill="white"/>
<path d="M171.024 134.024V136.136C171.024 139.72 171.856 142.6 174.48 145.032C174.864 145.352 175.504 145.992 175.504 146.696C175.504 147.08 175.312 147.464 174.864 147.784C174.864 147.912 168.528 152.456 168.528 152.456C167.888 152.968 167.248 153.16 166.672 153.16C165.52 153.16 155.28 149.768 155.28 138.376V136.2C155.28 129.48 152.016 126.664 147.344 126.408L146.128 149.64C146.128 150.28 145.552 150.856 144.912 150.856H144.784L131.984 150.216C131.216 150.152 130.704 149.576 130.704 148.808L132.432 115.528C132.496 114.824 133.072 114.248 133.712 114.248H133.84L141.008 114.632C143.504 114.12 145.872 113.864 148.176 113.864C161.168 113.864 171.024 121.8 171.024 134.024Z" fill="white"/>
<path d="M223.776 149.6L220.32 157.6C219.808 158.816 219.168 159.456 218.208 159.456C218.208 159.456 212.704 158.88 209.12 155.296C205.536 157.28 201.824 158.176 198.304 158.176C187.616 158.176 178.464 149.984 178.464 139.68C178.464 131.872 183.904 120.928 196.576 120.928C199.328 120.928 202.08 121.504 204.384 122.336L205.536 105.184C205.6 104.096 206.624 103.456 207.904 103.456L218.976 103.648C220.768 103.648 221.28 104.48 221.28 105.376V105.568C221.152 106.4 219.104 133.088 219.104 137.504C219.104 142.752 219.872 146.656 222.496 147.808C223.2 148.128 223.904 148.448 223.904 149.024C223.904 149.216 223.904 149.408 223.776 149.6ZM204.576 145.312C204.128 142.432 203.872 139.04 203.872 134.944C203.168 133.664 201.376 132.768 199.456 132.768C195.616 132.768 193.184 136.288 193.184 139.872C193.184 143.456 195.68 146.528 199.776 146.528C201.184 146.528 202.784 146.144 204.576 145.312Z" fill="white"/>
</mask>
<g mask="url(#mask0_445_7)">
<g clip-path="url(#clip0_445_7)">
<path d="M87.267 139.696L91.9094 152.904M82.9842 148.621L96.1922 143.979" stroke="#FF6467" stroke-width="5" stroke-linecap="round" stroke-linejoin="round"/>
</g>
<g clip-path="url(#clip1_445_7)">
<path d="M64.3175 143.394L64.3079 143.396M63.2037 139.552L63.1941 139.555M65.6815 140.916L65.6719 140.918M61.8397 142.03L61.8301 142.032M61.192 134.408L71.1032 139.864C72.2532 140.497 73.1047 141.561 73.4702 142.822C73.8358 144.083 73.6855 145.438 73.0524 146.588C72.4193 147.738 71.3554 148.589 70.0945 148.955C68.8337 149.32 67.4793 149.17 66.3293 148.537L56.418 143.081C55.268 142.448 54.4166 141.384 54.051 140.123C53.6855 138.862 53.8357 137.508 54.4688 136.358C55.1019 135.208 56.1659 134.356 57.4267 133.991C58.6875 133.625 60.0419 133.775 61.192 134.408Z" stroke="#FF6467" stroke-width="2" stroke-linecap="round" stroke-linejoin="round"/>
</g>
<path d="M24.788 140C54.8361 121.63 102.788 134.5 126.788 140C152.047 145.789 194.966 175.308 231.788 140" stroke="#FF6467" stroke-width="5"/>
<path d="M24.788 132C54.8361 113.63 102.788 126.5 126.788 132C152.047 137.789 194.966 167.308 231.788 132" stroke="#FF6467" stroke-width="5"/>
<path d="M24.788 123C54.8361 104.63 102.788 117.5 126.788 123C152.047 128.789 194.966 158.308 231.788 123" stroke="#FF6467" stroke-width="5"/>
<path d="M24.788 114C54.8361 95.6299 102.788 108.5 126.788 114C152.047 119.789 194.966 149.308 231.788 114" stroke="#FF6467" stroke-width="5"/>
</g>
<path d="M217.413 157.125L207.663 147.375M188.163 139.25C188.163 140.744 188.457 142.223 189.029 143.603C189.601 144.983 190.438 146.237 191.495 147.293C192.551 148.35 193.805 149.187 195.185 149.759C196.565 150.331 198.044 150.625 199.538 150.625C201.032 150.625 202.511 150.331 203.891 149.759C205.271 149.187 206.525 148.35 207.581 147.293C208.638 146.237 209.476 144.983 210.047 143.603C210.619 142.223 210.913 140.744 210.913 139.25C210.913 137.756 210.619 136.277 210.047 134.897C209.476 133.517 208.638 132.263 207.581 131.207C206.525 130.15 205.271 129.313 203.891 128.741C202.511 128.169 201.032 127.875 199.538 127.875C198.044 127.875 196.565 128.169 195.185 128.741C193.805 129.313 192.551 130.15 191.495 131.207C190.438 132.263 189.601 133.517 189.029 134.897C188.457 136.277 188.163 137.756 188.163 139.25Z" stroke="#FFC9C9" stroke-width="4" stroke-linecap="round" stroke-linejoin="round"/>
<defs>
<clipPath id="clip0_445_7">
<rect width="24" height="24" fill="white" transform="translate(74.288 138.958) rotate(-19.3655)"/>
</clipPath>
<clipPath id="clip1_445_7">
<rect width="24" height="24" fill="white" transform="translate(71.9445 126.606) rotate(73.8318)"/>
</clipPath>
</defs>
</svg>
