<svg width="256" height="256" viewBox="0 0 256 256" fill="none" xmlns="http://www.w3.org/2000/svg">
<path d="M92 72C82.9826 72 74.3346 75.5821 67.9584 81.9584C61.5821 88.3346 58 96.9826 58 106V134C58.0002 140.971 60.1433 147.774 64.1391 153.487C68.1348 159.199 73.79 163.546 80.3385 165.937C86.887 168.328 94.0122 168.648 100.749 166.854C107.485 165.06 113.508 161.239 118 155.908C122.492 161.239 128.515 165.06 135.251 166.854C141.988 168.648 149.113 168.328 155.661 165.937C162.21 163.546 167.865 159.199 171.861 153.487C175.857 147.774 178 140.971 178 134V106C178 99.0286 175.857 92.2258 171.861 86.5132C167.865 80.8006 162.21 76.4544 155.661 74.0633C149.113 71.6722 141.988 71.3519 135.251 73.1458C128.515 74.9397 122.492 78.761 118 84.092C114.812 80.3002 110.832 77.2526 106.341 75.1635C101.849 73.0745 96.9538 71.9947 92 72ZM113.38 91.2C111.152 95.8155 109.997 100.875 110 106V134C110 139.304 111.216 144.324 113.38 148.8C110.226 153.357 105.699 156.788 100.458 158.591C95.2175 160.394 89.5379 160.475 84.2478 158.822C78.9578 157.17 74.3342 153.87 71.0515 149.405C67.7689 144.94 65.999 139.542 66 134V130C66 131.839 66.3621 133.659 67.0657 135.358C67.7693 137.056 68.8005 138.599 70.1005 139.9C71.4005 141.2 72.9439 142.231 74.6424 142.934C76.341 143.638 78.1615 144 80 144C81.8385 144 83.659 143.638 85.3576 142.934C87.0561 142.231 88.5995 141.2 89.8995 139.9C91.1995 138.599 92.2307 137.056 92.9343 135.358C93.6379 133.659 94 131.839 94 130V110C94 108.161 93.6379 106.341 92.9343 104.642C92.2307 102.944 91.1995 101.401 89.8995 100.101C88.5995 98.8005 87.0561 97.7693 85.3576 97.0657C83.659 96.3621 81.8385 96 80 96C78.1615 96 76.341 96.3621 74.6424 97.0657C72.9439 97.7693 71.4005 98.8005 70.1005 100.101C68.8005 101.401 67.7693 102.944 67.0657 104.642C66.3621 106.341 66 108.161 66 110V106C65.999 100.458 67.7689 95.0604 71.0515 90.5951C74.3342 86.1297 78.9578 82.8302 84.2478 81.1777C89.5379 79.5253 95.2175 79.6064 100.458 81.4094C105.699 83.2123 110.226 86.6427 113.38 91.2ZM118 106C118 99.1044 120.739 92.4912 125.615 87.6152C130.491 82.7393 137.104 80 144 80C150.896 80 157.509 82.7393 162.385 87.6152C167.261 92.4912 170 99.1044 170 106V134C170 140.896 167.261 147.509 162.385 152.385C157.509 157.261 150.896 160 144 160C137.104 160 130.491 157.261 125.615 152.385C120.739 147.509 118 140.896 118 134V130C118 133.713 119.475 137.274 122.101 139.9C124.726 142.525 128.287 144 132 144C135.713 144 139.274 142.525 141.899 139.9C144.525 137.274 146 133.713 146 130V110C146 106.287 144.525 102.726 141.899 100.101C139.274 97.475 135.713 96 132 96C128.287 96 124.726 97.475 122.101 100.101C119.475 102.726 118 106.287 118 110V106ZM88.704 131.444C87.22 132.684 84.744 132.152 83.172 130.268C81.6 128.38 81.532 125.848 83.016 124.612C84.504 123.372 86.98 123.9 88.552 125.788C90.124 127.676 90.192 130.208 88.704 131.444ZM140.784 125.788C142.356 127.676 142.424 130.208 140.944 131.444C139.456 132.684 136.976 132.152 135.408 130.268C133.836 128.38 133.768 125.848 135.252 124.612C136.74 123.372 139.216 123.9 140.788 125.788" fill="#FF6467"/>
<path d="M203 210L171 178M107 151.333C107 156.236 107.966 161.091 109.842 165.62C111.718 170.15 114.468 174.265 117.935 177.732C121.401 181.199 125.517 183.949 130.046 185.825C134.576 187.701 139.431 188.667 144.333 188.667C149.236 188.667 154.091 187.701 158.62 185.825C163.15 183.949 167.265 181.199 170.732 177.732C174.199 174.265 176.949 170.15 178.825 165.62C180.701 161.091 181.667 156.236 181.667 151.333C181.667 146.431 180.701 141.576 178.825 137.046C176.949 132.517 174.199 128.401 170.732 124.935C167.265 121.468 163.15 118.718 158.62 116.842C154.091 114.966 149.236 114 144.333 114C139.431 114 134.576 114.966 130.046 116.842C125.517 118.718 121.401 121.468 117.935 124.935C114.468 128.401 111.718 132.517 109.842 137.046C107.966 141.576 107 146.431 107 151.333Z" stroke="#FB2C36" stroke-width="8" stroke-linecap="round" stroke-linejoin="round"/>
</svg>
